<svg width="350" height="350" viewBox="0 0 350 350" fill="none" xmlns="http://www.w3.org/2000/svg">
<g clip-path="url(#clip0_162_1452)">
<rect width="56.591" height="172.127" rx="28.2955" transform="matrix(0.94693 -0.321441 0.294258 0.955726 56 103.191)" fill="#9B7AA0"/>
<path d="M64.3262 130.233C59.7278 115.298 67.996 99.1186 82.7938 94.0954V94.0954C97.5917 89.0721 113.315 97.1075 117.914 112.043L134.913 167.253L81.3249 185.444L64.3262 130.233Z" fill="#9B7AA0"/>
<path d="M81.3247 185.444L134.912 167.253L151.911 222.464C156.51 237.399 148.241 253.579 133.443 258.602V258.602C118.646 263.625 102.922 255.59 98.3235 240.654L81.3247 185.444Z" fill="#9B7AA0"/>
<rect width="56.591" height="172.127" rx="28.2955" transform="matrix(0.94693 -0.321441 0.294258 0.955726 140.238 103.191)" fill="#9B7AA0"/>
<path d="M148.564 130.233C143.966 115.298 152.234 99.1186 167.032 94.0954V94.0954C181.829 89.0722 197.553 97.1075 202.152 112.043L219.15 167.253L165.563 185.444L148.564 130.233Z" fill="#9B7AA0"/>
<path d="M165.562 185.444L219.15 167.253L236.149 222.464C240.747 237.399 232.479 253.578 217.681 258.602V258.602C202.883 263.625 187.16 255.59 182.561 240.654L165.562 185.444Z" fill="#9B7AA0"/>
<path d="M232.739 130.032C228.175 115.208 236.382 99.1489 251.069 94.1631V94.1631C265.757 89.1773 281.364 97.1531 285.928 111.977V111.977C290.492 126.801 282.285 142.86 267.598 147.846V147.846C252.91 152.832 237.304 144.856 232.739 130.032V130.032Z" fill="#9B7AA0"/>
</g>
<defs>
<clipPath id="clip0_162_1452">
<rect width="238" height="180" fill="none" transform="translate(56 85)"/>
</clipPath>
</defs>
</svg>
